# xmcd CD database file
#
# Track frame offsets:
#	150
#	27064
#	65319
#	75315
#	107867
#	130139
#	155790
#	164040
#	195468
#	200201
#	232449
#	259656
#	288933
#
# Disc length: 4060 seconds
#
# Revision: 1
# Processed by: cddbd v1.5PL3 Copyright (c) Steve Scherf et al.
# Submitted via: CDex 1.51
#
DISCID=bc0fda0d
DTITLE=Dave Pietro - Embrace Impressions of Brazil 
DYEAR=2004
DGENRE=Jazz
TTITLE0=Never Nothing
TTITLE1=Equanimity
TTITLE2=Interlude #1
TTITLE3=The Scene Between Two Unseens
TTITLE4=Canto Triste
TTITLE5=Cururu
TTITLE6=Interlude #2
TTITLE7=Remembrance
TTITLE8=Interlude #3
TTITLE9=And So It Is
TTITLE10=Hamartia
TTITLE11=Embrace
TTITLE12=Choro Bandido
EXTD=YEAR: 2004
EXTT0=
EXTT1=
EXTT2=
EXTT3=
EXTT4=
EXTT5=
EXTT6=
EXTT7=
EXTT8=
EXTT9=
EXTT10=
EXTT11=
EXTT12=
PLAYORDER=
